<mxfile host="65bd71144e">
    <diagram name="Page-1" id="b5b7bab2-c9e2-2cf4-8b2a-24fd1a2a6d21">
        <mxGraphModel dx="1677" dy="804" grid="1" gridSize="10" guides="1" tooltips="1" connect="1" arrows="1" fold="1" page="1" pageScale="1" pageWidth="1169" pageHeight="827" background="none" math="0" shadow="0">
            <root>
                <mxCell id="0"/>
                <mxCell id="1" parent="0"/>
                <mxCell id="R9jmuaIVsm4z79QkE_lt-1" value="Vncl4040" style="shape=folder;fontStyle=1;spacingTop=10;tabWidth=40;tabHeight=14;tabPosition=left;html=1;whiteSpace=wrap;align=center;verticalAlign=top;" parent="1" vertex="1">
                    <mxGeometry x="322.5" y="120" width="727.5" height="280" as="geometry"/>
                </mxCell>
                <mxCell id="R9jmuaIVsm4z79QkE_lt-2" value="Definitions" style="shape=folder;fontStyle=1;spacingTop=10;tabWidth=40;tabHeight=14;tabPosition=left;html=1;whiteSpace=wrap;" parent="1" vertex="1">
                    <mxGeometry x="570" y="320" width="175" height="70" as="geometry"/>
                </mxCell>
                <mxCell id="n0rTj17IeqWGkauvOjJA-1" value="Internal" style="shape=folder;fontStyle=1;spacingTop=10;tabWidth=40;tabHeight=14;tabPosition=left;html=1;whiteSpace=wrap;" parent="1" vertex="1">
                    <mxGeometry x="570" y="225" width="175" height="70" as="geometry"/>
                </mxCell>
                <mxCell id="n0rTj17IeqWGkauvOjJA-2" value="Infrastructure" style="shape=folder;fontStyle=1;spacingTop=10;tabWidth=40;tabHeight=14;tabPosition=left;html=1;whiteSpace=wrap;" parent="1" vertex="1">
                    <mxGeometry x="780" y="225" width="175" height="70" as="geometry"/>
                </mxCell>
            </root>
        </mxGraphModel>
    </diagram>
    <diagram id="pdLL1RrrrF7SzUCrE1Di" name="Usage sequence">
        <mxGraphModel dx="1677" dy="804" grid="1" gridSize="10" guides="1" tooltips="1" connect="1" arrows="1" fold="1" page="1" pageScale="1" pageWidth="827" pageHeight="1169" math="0" shadow="0">
            <root>
                <mxCell id="0"/>
                <mxCell id="1" parent="0"/>
                <mxCell id="ZawtohuoLCb-P4o2eFEq-1" value="Create" style="rounded=1;whiteSpace=wrap;html=1;absoluteArcSize=1;arcSize=14;strokeWidth=2;" vertex="1" parent="1">
                    <mxGeometry x="120" y="110" width="100" height="60" as="geometry"/>
                </mxCell>
                <mxCell id="ZawtohuoLCb-P4o2eFEq-2" value="Configure Integration Time / Resolution / Range" style="rounded=1;whiteSpace=wrap;html=1;absoluteArcSize=1;arcSize=14;strokeWidth=2;" vertex="1" parent="1">
                    <mxGeometry x="270" y="110" width="100" height="60" as="geometry"/>
                </mxCell>
                <mxCell id="ZawtohuoLCb-P4o2eFEq-3" value="Configure Integration Time / Resolution / Range" style="rounded=1;whiteSpace=wrap;html=1;absoluteArcSize=1;arcSize=14;strokeWidth=2;" vertex="1" parent="1">
                    <mxGeometry x="400" y="110" width="100" height="60" as="geometry"/>
                </mxCell>
            </root>
        </mxGraphModel>
    </diagram>
</mxfile>
